<svg width="33" height="26" viewBox="0 0 33 26" fill="none" xmlns="http://www.w3.org/2000/svg">
<path d="M18.1837 0.683168C18.6212 0.245736 19.2146 0 19.8333 0C20.452 0 21.0454 0.245736 21.483 0.683168L31.983 11.1832C32.4204 11.6207 32.6662 12.2141 32.6662 12.8328C32.6662 13.4516 32.4204 14.0449 31.983 14.4825L21.483 24.9825C21.0429 25.4075 20.4535 25.6427 19.8417 25.6374C19.2299 25.6321 18.6447 25.3867 18.2121 24.9541C17.7795 24.5215 17.5341 23.9362 17.5288 23.3244C17.5234 22.7126 17.7586 22.1232 18.1837 21.6832L24.5 15.1662H2.33333C1.71449 15.1662 1.121 14.9203 0.683417 14.4827C0.245833 14.0452 0 13.4517 0 12.8328C0 12.214 0.245833 11.6205 0.683417 11.1829C1.121 10.7453 1.71449 10.4995 2.33333 10.4995H24.5L18.1837 3.9825C17.7462 3.54494 17.5005 2.95155 17.5005 2.33283C17.5005 1.71412 17.7462 1.12073 18.1837 0.683168Z" fill="white" fill-opacity="0.8"/>
</svg>
