<svg width="38" height="38" viewBox="0 0 38 38" fill="none" xmlns="http://www.w3.org/2000/svg">
<path d="M14.5833 0H2.08333C1.5308 0 1.00089 0.219493 0.610194 0.610194C0.219493 1.00089 0 1.5308 0 2.08333V14.5833C0 15.1359 0.219493 15.6658 0.610194 16.0565C1.00089 16.4472 1.5308 16.6667 2.08333 16.6667H14.5833C15.1359 16.6667 15.6658 16.4472 16.0565 16.0565C16.4472 15.6658 16.6667 15.1359 16.6667 14.5833V2.08333C16.6667 1.5308 16.4472 1.00089 16.0565 0.610194C15.6658 0.219493 15.1359 0 14.5833 0ZM35.4167 0H22.9167C22.3641 0 21.8342 0.219493 21.4435 0.610194C21.0528 1.00089 20.8333 1.5308 20.8333 2.08333V14.5833C20.8333 15.1359 21.0528 15.6658 21.4435 16.0565C21.8342 16.4472 22.3641 16.6667 22.9167 16.6667H35.4167C35.9692 16.6667 36.4991 16.4472 36.8898 16.0565C37.2805 15.6658 37.5 15.1359 37.5 14.5833V2.08333C37.5 1.5308 37.2805 1.00089 36.8898 0.610194C36.4991 0.219493 35.9692 0 35.4167 0ZM14.5833 20.8333H2.08333C1.5308 20.8333 1.00089 21.0528 0.610194 21.4435C0.219493 21.8342 0 22.3641 0 22.9167V35.4167C0 35.9692 0.219493 36.4991 0.610194 36.8898C1.00089 37.2805 1.5308 37.5 2.08333 37.5H14.5833C15.1359 37.5 15.6658 37.2805 16.0565 36.8898C16.4472 36.4991 16.6667 35.9692 16.6667 35.4167V22.9167C16.6667 22.3641 16.4472 21.8342 16.0565 21.4435C15.6658 21.0528 15.1359 20.8333 14.5833 20.8333ZM29.1667 20.8333C30.7971 20.8333 32.3917 21.3116 33.753 22.2089C35.1143 23.1063 36.1825 24.3832 36.8252 25.8816C37.4679 27.38 37.657 29.034 37.3689 30.6388C37.0809 32.2436 36.3284 33.7287 35.2047 34.91C34.081 36.0914 32.6355 36.9172 31.0471 37.2851C29.4587 37.653 27.7973 37.5469 26.2686 36.9799C24.74 36.4129 23.4112 35.4099 22.447 34.0951C21.4827 32.7804 20.9253 31.2117 20.8438 29.5833L20.8333 29.1667L20.8438 28.75C20.9507 26.6147 21.8742 24.6021 23.4233 23.1286C24.9724 21.6551 27.0287 20.8333 29.1667 20.8333Z" fill="black"/>
</svg>
