<svg width="24" height="24" viewBox="0 0 24 24" fill="none" xmlns="http://www.w3.org/2000/svg">
<path d="M12 23.25C13.4774 23.25 14.9403 22.959 16.3052 22.3936C17.6701 21.8283 18.9103 20.9996 19.955 19.955C20.9996 18.9103 21.8283 17.6701 22.3936 16.3052C22.959 14.9403 23.25 13.4774 23.25 12C23.25 10.5226 22.959 9.05972 22.3936 7.69481C21.8283 6.3299 20.9996 5.08971 19.955 4.04505C18.9103 3.00039 17.6701 2.17172 16.3052 1.60636C14.9403 1.04099 13.4774 0.75 12 0.75M12 23.25C10.5226 23.25 9.05972 22.959 7.69481 22.3936C6.3299 21.8283 5.08971 20.9996 4.04505 19.955C3.00039 18.9103 2.17172 17.6701 1.60636 16.3052C1.04099 14.9403 0.75 13.4774 0.75 12C0.75 10.5226 1.04099 9.05972 1.60636 7.69481C2.17172 6.3299 3.00039 5.08971 4.04505 4.04505C5.08971 3.00039 6.3299 2.17172 7.69481 1.60636C9.05972 1.04099 10.5226 0.75 12 0.75M12 23.25C15.4512 23.25 16.9262 16.7962 16.9262 12C16.9262 7.20375 15.4512 0.75 12 0.75M12 23.25C8.54875 23.25 7.07375 16.7962 7.07375 12C7.07375 7.20375 8.54875 0.75 12 0.75M1.375 8.25H22.625M1.375 15.75H22.625" stroke="white" stroke-width="1.5" stroke-linecap="round" stroke-linejoin="round"/>
</svg>
