<svg width="47" height="42" viewBox="0 0 47 42" fill="none" xmlns="http://www.w3.org/2000/svg">
<path d="M46.7512 19.8863L41.1262 6.76125C40.9817 6.42404 40.7414 6.13665 40.4351 5.93468C40.1288 5.73271 39.77 5.62504 39.4031 5.625H33.7781V1.875C33.7781 1.37772 33.5806 0.900806 33.2289 0.549175C32.8773 0.197544 32.4004 0 31.9031 0H1.90309V3.75H30.0281V27.2925C29.1742 27.7893 28.4269 28.4498 27.8291 29.2362C27.2312 30.0226 26.7946 30.9194 26.5443 31.875H14.7618C14.3055 30.1075 13.2202 28.5671 11.7093 27.5426C10.1985 26.5181 8.36587 26.0798 6.55497 26.3098C4.74407 26.5398 3.07922 27.4224 1.87249 28.7921C0.665761 30.1618 0 31.9245 0 33.75C0 35.5755 0.665761 37.3382 1.87249 38.7079C3.07922 40.0776 4.74407 40.9602 6.55497 41.1902C8.36587 41.4202 10.1985 40.9819 11.7093 39.9574C13.2202 38.9329 14.3055 37.3925 14.7618 35.625H26.5443C26.9522 37.2342 27.885 38.6614 29.1952 39.6809C30.5053 40.7004 32.118 41.254 33.7781 41.254C35.4382 41.254 37.0509 40.7004 38.361 39.6809C39.6712 38.6614 40.604 37.2342 41.0118 35.625H45.0281C45.5254 35.625 46.0023 35.4275 46.3539 35.0758C46.7056 34.7242 46.9031 34.2473 46.9031 33.75V20.625C46.903 20.371 46.8514 20.1197 46.7512 19.8863ZM7.52809 37.5C6.78641 37.5 6.06139 37.2801 5.44471 36.868C4.82802 36.456 4.34737 35.8703 4.06354 35.1851C3.77972 34.4998 3.70545 33.7458 3.85015 33.0184C3.99484 32.291 4.352 31.6228 4.87644 31.0984C5.40089 30.5739 6.06908 30.2167 6.7965 30.0721C7.52393 29.9274 8.27793 30.0016 8.96316 30.2855C9.64838 30.5693 10.234 31.0499 10.6461 31.6666C11.0582 32.2833 11.2781 33.0083 11.2781 33.75C11.2781 34.7446 10.883 35.6984 10.1797 36.4016C9.47648 37.1049 8.52266 37.5 7.52809 37.5ZM33.7781 9.375H38.1656L42.1856 18.75H33.7781V9.375ZM33.7781 37.5C33.0364 37.5 32.3114 37.2801 31.6947 36.868C31.078 36.456 30.5974 35.8703 30.3135 35.1851C30.0297 34.4998 29.9555 33.7458 30.1002 33.0184C30.2448 32.291 30.602 31.6228 31.1264 31.0984C31.6509 30.5739 32.3191 30.2167 33.0465 30.0721C33.7739 29.9274 34.5279 30.0016 35.2132 30.2855C35.8984 30.5693 36.484 31.0499 36.8961 31.6666C37.3082 32.2833 37.5281 33.0083 37.5281 33.75C37.5281 34.7446 37.133 35.6984 36.4297 36.4016C35.7265 37.1049 34.7727 37.5 33.7781 37.5ZM43.1531 31.875H41.0118C40.5988 30.2689 39.6645 28.8453 38.3554 27.8274C37.0463 26.8094 35.4364 26.2546 33.7781 26.25V22.5H43.1531V31.875Z" fill="white"/>
</svg>
