<svg width="32" height="28" viewBox="0 0 32 28" fill="none" xmlns="http://www.w3.org/2000/svg">
<path d="M1.66675 9.47595C1.66678 7.90054 2.14469 6.3622 3.03735 5.06409C3.93002 3.76599 5.19545 2.7692 6.66652 2.20538C8.13758 1.64156 9.74507 1.53723 11.2767 1.90616C12.8083 2.2751 14.1919 3.09995 15.2449 4.27177C15.3191 4.35107 15.4087 4.41429 15.5083 4.45751C15.6079 4.50073 15.7154 4.52303 15.8239 4.52303C15.9325 4.52303 16.0399 4.50073 16.1395 4.45751C16.2391 4.41429 16.3288 4.35107 16.403 4.27177C17.4526 3.09233 18.8366 2.26055 20.3707 1.88713C21.9048 1.51371 23.5162 1.61637 24.9906 2.18143C26.4649 2.7465 27.7321 3.74718 28.6236 5.05027C29.5151 6.35337 29.9887 7.89709 29.9811 9.47595C29.9811 12.718 27.8576 15.1388 25.734 17.2624L17.9588 24.7841C17.6951 25.0871 17.3698 25.3305 17.0047 25.4981C16.6396 25.6657 16.2431 25.7537 15.8413 25.7562C15.4396 25.7588 15.042 25.6758 14.6748 25.5128C14.3076 25.3499 13.9793 25.1106 13.7117 24.811L5.91391 17.2624C3.79033 15.1388 1.66675 12.7321 1.66675 9.47595Z" stroke="#EB3535" stroke-width="3.33333" stroke-linecap="round" stroke-linejoin="round"/>
</svg>
