<svg width="24" height="28" viewBox="0 0 24 28" fill="none" xmlns="http://www.w3.org/2000/svg">
<path d="M1.8942 22.7512H13.2629C13.743 22.7514 14.2051 22.9567 14.5559 23.3257C14.9067 23.6947 15.12 24.1998 15.1527 24.739C15.1854 25.2783 15.0351 25.8114 14.7322 26.2306C14.4292 26.6499 13.9962 26.924 13.5206 26.9977L13.2629 27.0176H1.8942C1.41413 27.0175 0.952015 26.8121 0.601226 26.4432C0.250437 26.0742 0.0371311 25.5691 0.0044095 25.0298C-0.0283121 24.4906 0.12199 23.9575 0.424946 23.5383C0.727902 23.119 1.16092 22.8448 1.63651 22.7711L1.8942 22.7512ZM5.60798 6.31141C5.92912 5.95057 6.3546 5.73144 6.80709 5.69386C7.25958 5.65628 7.70903 5.80274 8.07372 6.10663L8.28594 6.31426L17.1283 16.2692C17.4642 16.6503 17.66 17.16 17.6768 17.6966C17.6936 18.2332 17.5301 18.7571 17.2188 19.1639C16.9075 19.5707 16.4715 19.8304 15.9977 19.8912C15.5238 19.9519 15.047 19.8093 14.6625 19.4917L14.4503 19.2841L5.60798 9.32918C5.25315 8.9292 5.05384 8.38701 5.05384 7.82172C5.05384 7.25642 5.25315 6.71139 5.60798 6.31141ZM22.1052 0C22.5631 2.17384e-05 23.0055 0.186705 23.3505 0.525526C23.6956 0.864346 23.92 1.33238 23.9823 1.84308L24 2.1332V14.9324C23.9999 15.4728 23.8175 15.9931 23.4897 16.388C23.162 16.783 22.7133 17.0231 22.2344 17.0599C21.7554 17.0968 21.2819 16.9276 20.9095 16.5865C20.5371 16.2454 20.2936 15.7579 20.2281 15.2225L20.2104 14.9324V2.1332C20.2104 1.56744 20.4101 1.02485 20.7654 0.624798C21.1207 0.224746 21.6027 0 22.1052 0Z" fill="black"/>
</svg>
