<svg width="34" height="19" viewBox="0 0 34 19" fill="none" xmlns="http://www.w3.org/2000/svg">
<path d="M26.5623 10.5556H7.43766C6.84267 10.5556 6.37518 10.0911 6.37518 9.50001C6.37518 8.9089 6.84267 8.44446 7.43766 8.44446H26.5623C27.1573 8.44446 27.6248 8.9089 27.6248 9.50001C27.6248 10.0911 27.1573 10.5556 26.5623 10.5556Z" fill="#A80000"/>
<path d="M21.2499 17.9444C21.1106 17.9461 20.9724 17.9188 20.8443 17.8643C20.7162 17.8097 20.6011 17.7292 20.5062 17.6278C20.0812 17.2055 20.0812 16.5511 20.5062 16.1289L27.1998 9.47886L20.5062 2.82886C20.0812 2.40664 20.0812 1.75219 20.5062 1.32997C20.9312 0.90775 21.5899 0.90775 22.0149 1.32997L29.4523 8.71886C29.8772 9.14108 29.8772 9.79553 29.4523 10.2178L22.0149 17.6066C21.8024 17.8178 21.5262 17.9233 21.2712 17.9233L21.2499 17.9444Z" fill="#A80000"/>
</svg>
